#!OML:ASF E:/inclinewalkrobotboard/Project1/Captureday1/Session1/subject1.ASF
:FULLY-SPECIFIED
:DEGREES
201
root 0 0 0 1.7322802991917319 -10.793093015234696 0.8013202327070933
lowerback -0.05925810511464524 -1.5548602432715612 -2.5822918687900245
upperback -0.6948968266139295 -2.0381434691930584 1.8076410155742242
thorax -0.49416293558395663 -0.9946013849280307 3.2655103196998727
lowerneck -24.47592317722538 -1.6251187810370198 -7.6160507812602685
upperneck 28.615190445695404 0.3589780853893578 1.825814480340511
head 13.749283082374944 -0.6165547218896128 2.195267769959157
rclavicle -1.1401469312410615E-14 1.1204552326717036E-15
rhumerus -31.046269192397656 0.029883939595301 -81.64824948788646
rradius 31.499136707437412
rwrist 18.372248610706265
rhand -18.55109599947918 9.22203565541164
rfingers 7.125019999999937
rthumb 7.737602262603002 -20.653942690202452
lclavicle -3.3769865811584544E-15 4.552057964018047E-16
lhumerus -19.494336487020977 -1.2380237602796265 90.52563459326865
lradius 63.95785306180714
lwrist 1.3175049975162136
lhand -28.80775979539326 20.492303257597033
lfingers 7.125020000000028
lthumb -2.15377164178663 50.45112423766319
rfemur 6.101852876264962 4.030605369615497 27.29599910849176
rtibia 51.349575375611664
rfoot 0.11408861701722728 0.7736686963266179
rtoes -1.6389913275642494
lfemur -27.130772291315086 -4.446784037933294 -12.834463696711321
ltibia 25.42218749208402
lfoot -1.9885196078084597 -0.15179572622500181
ltoes 1.7157597635614064
202
root 0 0 0 1.7372843953441748 -10.861625334119053 0.828670182471318
lowerback -0.12340724322394792 -1.580678308585004 -2.6077784366365115
upperback -0.7026734495960079 -2.0728329287817115 1.7652751649058445
thorax -0.46325710747885773 -1.0112042058496327 3.2350792314457104
lowerneck -24.60406855751423 -1.640198446735388 -7.645072714018284
upperneck 28.617777388780446 0.3579188053640109 1.8203940776586545
head 13.777630324970376 -0.6167881241703247 2.193996534696376
rclavicle -1.1019025232807657E-14 7.736509569988514E-16
rhumerus -31.305357272177076 -0.7687735629017158 -81.4562287360692
rradius 31.29484650190431
rwrist 18.611444221511537
rhand -18.35619680641082 9.147859864408101
rfingers 7.125019999999936
rthumb 7.924046038061946 -20.710840044385215
lclavicle -3.28939066916065E-15 4.951603940879287E-16
lhumerus -19.102835247549212 -0.8169307424499186 90.41872942404746
lradius 63.851538639421776
lwrist 1.1756550071900702
lhand -28.905690760065802 20.443098049679843
lfingers 7.125020000000026
lthumb -2.2474410101374724 50.39240721331882
rfemur -4.294603049788679 2.84367707779578 24.65441130729854
rtibia 60.878120901917605
rfoot 8.368788218421916 0.04824800119577377
rtoes 7.845224600461876
lfemur -22.273285400118294 -3.4521638259714367 -17.3963227269893
ltibia 31.85966688293642
lfoot -1.5730446436147476 -3.945075432125919
ltoes 6.4923620933401605
203
root 0 0 0 1.7709834075834139 -10.903340001019254 0.8495445652487403
lowerback -0.184300922606925 -1.6126668313992691 -2.6388487481906386
upperback -0.6666941397339204 -2.115541060289645 1.7241822949245638
thorax -0.3913651475701644 -1.0339821209350284 3.2091498191962415
lowerneck -24.630633446330073 -1.640625826912863 -7.714960857515871
upperneck 28.670967954658117 0.35550182280928533 1.8576002754027188
head 13.790783002292164 -0.609211071301961 2.212902342223501
rclavicle -8.461123692474471E-15 9.664476297174807E-16
rhumerus -31.787818375818336 -2.3804808901316754 -81.20552806912995
rradius 30.958226504875352
rwrist 19.068402072557305
rhand -17.996899645376143 9.02845340887423
rfingers 7.1250199999999335
rthumb 8.270363560351498 -20.811528779932793
lclavicle -2.7444896645574563E-15 6.868080834432438E-16
lhumerus -19.202006839252274 -1.3393715041928207 90.39418134260775
lradius 64.0479852374261
lwrist 1.3609897122212966
lhand -28.811921270998013 20.533925432739565
lfingers 7.125020000000025
lthumb -2.1605533477382597 50.49577712488578
rfemur -9.781226465305746 1.6296349633899911 22.698093328903514
rtibia 68.03727391888712
rfoot 6.148740119428986 -3.1730077202642324
rtoes 11.338106421605003
lfemur -17.596631964741775 -2.9476957843230487 -21.180056358178366
ltibia 32.18797920840634
lfoot -3.9114920164923017 -4.036160100863538
ltoes 9.476152960529047
204
root 0 0 0 1.804927774976459 -10.885188789703774 0.8593206117394694
lowerback -0.19189644960253882 -1.6254472583238269 -2.669160668183286
upperback -0.6240469894806436 -2.13358721708798 1.708570279984055
thorax -0.34357136852238246 -1.0444270991813533 3.2108951709641165
lowerneck -24.589424055284287 -1.6356123814200245 -7.775263595335755
upperneck 28.5291014653237 0.33870330768144996 1.9451515909134143
head 13.714620448876026 -0.5962309288234497 2.2434770483865782
rclavicle -5.490556536305086E-15 1.2712832108673311E-15
rhumerus -32.331204954721166 -4.084596531264106 -80.91378907352238
rradius 30.573765466519482
rwrist 19.57624704128851
rhand -17.61918094918523 8.906361201689126
rfingers 7.125019999999932
rthumb 8.635056879121354 -20.920563610631138
lclavicle -2.080927111361461E-15 1.1367622767419287E-15
lhumerus -19.350963302159165 -2.1794393886254166 90.34918631152635
lradius 64.4092793656973
lwrist 1.6902307042080085
lhand -28.66955284565806 20.80408595173054
lfingers 7.125020000000025
lthumb -2.027170672782728 50.78435375089603
rfemur -15.12677198437578 0.16989606423136472 21.29623588945388
rtibia 72.91036469193676
rfoot 0.6192981889183198 -5.760965829325488
rtoes 8.859422224057607
lfemur -11.92129466201354 -3.20788185560257 -24.513228420327287
ltibia 28.224258389962664
lfoot -9.596175212067024 -1.844093281405967
ltoes 10.002868807828134
